<svg width="228" height="37" viewBox="0 0 228 37" fill="none" xmlns="http://www.w3.org/2000/svg">
<g clip-path="url(#clip0_10060_119845)">
<mask id="mask0_10060_119845" style="mask-type:alpha" maskUnits="userSpaceOnUse" x="0" y="0" width="228" height="37">
<path fill-rule="evenodd" clip-rule="evenodd" d="M0 0.231445H228V36.2314H0V0.231445Z" fill="white"/>
</mask>
<g mask="url(#mask0_10060_119845)">
<path fill-rule="evenodd" clip-rule="evenodd" d="M19.2135 6.21699H19.5977V1.05554H0V1.40253C2.26292 3.26759 2.5618 3.83145 2.5618 5.87V30.723C2.5618 32.7616 2.26292 33.282 0 35.1905V35.5375H10.1618V35.1905C7.85618 33.4555 7.47191 32.7616 7.47191 30.8098V18.4917H9.69213C12.5528 18.4917 13.0652 18.7086 15.5416 21.8748H15.8831V13.764H15.5416C13.0652 16.9302 12.5955 17.1471 9.69213 17.1471H7.47191V2.31337H10.8449C12.2112 2.31337 13.364 2.79048 19.2135 6.21699ZM26.9416 20.7905H20.1528L23.3551 10.7712C23.4831 11.1182 23.6539 11.5086 23.8247 11.9857L26.9416 20.7905ZM32.2786 23.7399L26.3865 7.25795H21.0494V7.56157C21.818 8.25554 22.2876 8.8194 22.6719 9.42663L18.2742 23.0459C17.5056 25.4748 16.9933 26.2555 14.9865 28.164V28.511H21.1775V28.164C19.4697 27.123 18.9146 26.429 18.9146 25.4314C18.9146 24.9543 19.0427 24.3037 19.427 23.176L19.8112 21.9616H27.3258L28.009 23.9134C28.4359 25.1712 28.5213 25.6483 28.5213 26.1254C28.5213 26.8194 28.0517 27.4266 26.7281 28.2073V28.5543H35.3528V28.2073C33.3461 26.429 33.0472 25.8652 32.2786 23.7399ZM45.2584 6.21699H45.6427V1.22904C43.764 0.882048 41.6292 0.578433 39.6652 0.578433C33.9865 0.578433 31.2112 4.43867 31.2112 8.51578C31.2112 13.2435 34.2427 16.1061 38.0854 19.3592C42.2697 22.9158 44.7034 25.0845 44.7034 29.1616C44.7034 32.5447 42.4831 34.6266 39.5798 34.6266C37.018 34.6266 34.9685 33.5857 29.5888 29.2917H29.1191L31.1258 34.9302C33.5168 35.6242 35.9506 35.9712 38.427 35.9712C44.8741 35.9712 48.6315 31.9808 48.6315 26.429C48.6315 21.311 45.6854 18.7086 41.5011 15.282C37.6584 12.1158 35.0539 9.55675 35.0539 5.91337C35.0539 3.52783 36.591 1.87964 39.0247 1.87964C40.6472 1.87964 41.8427 2.53024 45.2584 6.21699ZM70.1505 6.21699H70.5348V1.05554H47.4359V6.17361H47.8202C53.2854 2.66036 54.3528 2.22663 55.6337 2.22663H56.5303V30.7664C56.5303 32.7182 56.1461 33.3688 53.8404 35.1471V35.4941H64.1303V35.1471C61.8247 33.4122 61.4404 32.7182 61.4404 30.7664V2.22663H62.3371C63.5753 2.22663 64.6854 2.70373 70.1505 6.21699ZM99.6112 5.26277H99.9955V0.882048C97.7326 0.53506 94.7865 0.231445 92.0966 0.231445C80.0989 0.231445 72.9685 7.04108 72.9685 18.3182C72.9685 29.3784 79.7573 36.2314 91.6269 36.2314C94.7011 36.2314 97.4764 35.7543 99.6966 35.1905L100.551 30.2893H100.166C95.7258 34.1061 93.7618 34.9736 90.5168 34.9736C81.6359 34.9736 78.6899 28.164 78.6899 18.1013C78.6899 7.86518 81.6359 1.6194 90.0472 1.6194C92.7371 1.6194 94.6584 2.22663 99.6112 5.26277ZM98.4584 18.1013C98.4584 23.7833 97.9887 27.5567 93.9326 27.5567C89.8764 27.5567 89.4067 23.7833 89.4067 18.1013C89.4067 12.4194 89.8764 8.6459 93.9326 8.6459C97.9887 8.6459 98.4584 12.4194 98.4584 18.1013ZM103.24 18.1013C103.24 12.1158 99.7393 7.60494 93.9326 7.60494C88.1258 7.60494 84.6247 12.1592 84.6247 18.1013C84.6247 24.0435 88.1258 28.5977 93.9326 28.5977C99.782 28.5977 103.24 24.0435 103.24 18.1013ZM124.034 35.4073L134.067 35.4507V35.1037C131.804 33.2387 131.506 32.6748 131.506 30.6796V5.87C131.506 3.83145 131.804 3.26759 134.067 1.4459V1.09892L126.937 1.05554L119.038 26.4724L110.969 1.05554H103.753V1.40253C105.119 2.61699 105.93 3.39771 106.528 4.17843V28.2507C106.528 31.0266 106.186 32.1543 103.667 35.1471V35.4941H111.737V35.1471C108.364 32.3278 107.852 31.1567 107.852 28.2507V6.82422C107.894 6.99771 107.98 7.12783 108.022 7.3447L117.074 35.7543H117.458L126.553 6.47723V30.6363C126.553 32.6748 126.254 33.2387 123.991 35.0604C124.034 35.1037 124.034 35.4073 124.034 35.4073ZM153.153 11.5953C153.153 18.058 151.658 20.7471 146.791 20.7471H144.016V2.31337H145.98C151.317 2.31337 153.153 4.65554 153.153 11.5953ZM158.362 11.3784C158.362 3.61458 153.025 1.09892 145.809 1.09892H136.501V1.4459C138.764 3.31096 139.063 3.87482 139.063 5.91337V30.7664C139.063 32.8049 138.764 33.3254 136.501 35.2339V35.5808H146.663V35.2339C144.357 33.4989 143.973 32.8049 143.973 30.8531V22.0049H146.62C153.025 22.0049 158.362 19.229 158.362 11.3784ZM170.786 22.9158H161.18L165.919 5.56639C166.004 5.87 166.133 6.17361 166.218 6.5206L170.786 22.9158ZM228 1.40253V1.05554H220.357V1.40253C222.407 3.26759 223.047 4.13506 223.047 5.52301C223.047 6.26036 222.876 6.82422 222.321 8.12542L217.924 18.5784L212.16 5.65313C211.69 4.65554 211.562 4.09169 211.562 3.5712C211.562 2.66036 212.074 2.13988 213.44 1.40253V1.05554H196.49V1.40253C200.29 4.26518 200.802 5.34952 200.802 8.47241V28.2507L186.67 1.05554H179.625V1.40253C181.076 2.66036 181.93 3.48446 182.656 4.48205V28.3375C182.656 30.9399 182.357 32.0676 180.351 35.1471C178.771 33.1519 178.429 32.1977 177.661 29.3784L169.676 1.05554H162.802V1.40253C163.87 2.35675 164.553 3.05072 165.065 3.83145L158.404 28.1206C157.465 31.6339 156.697 32.7182 154.135 35.1471V35.4941H162.333V35.1471C159.984 33.3254 159.258 32.4146 159.258 30.8531C159.258 30.2025 159.386 29.3351 159.728 28.1206L160.795 24.217H171.085L172.537 29.3351C173.007 30.9399 173.177 31.6339 173.177 32.2411C173.177 33.1086 172.793 33.7158 171.085 35.1037V35.4507H188.292V35.1037C184.492 32.2845 183.98 31.1567 183.98 28.2941V6.60735C184.022 6.65072 184.022 6.6941 184.065 6.78084L199.009 35.4941H202.126V8.47241C202.126 5.60976 202.425 4.48205 204.346 1.40253C205.627 2.96398 206.438 4.26518 207.463 6.65072L213.568 20.3567V30.7664C213.568 32.7182 213.184 33.3688 210.879 35.1037V35.4507H221.168V35.1037C218.863 33.3688 218.479 32.6748 218.479 30.723V20.2266L223.559 8.21217C224.627 5.65313 225.438 4.43867 228 1.40253Z" fill="#42185F"/>
</g>
</g>
<defs>
<clipPath id="clip0_10060_119845">
<rect width="228" height="36" fill="white" transform="translate(0 0.231445)"/>
</clipPath>
</defs>
</svg>
