<svg width="183" height="37" viewBox="0 0 183 37" fill="none" xmlns="http://www.w3.org/2000/svg">
<path d="M17.8961 12.5807C19.1263 15.6995 20.3562 18.8185 21.5857 21.9377C22.7869 24.9818 23.9887 28.0259 25.1913 31.0698C25.2782 31.2899 25.3685 31.5084 25.4573 31.7277L25.5128 31.7177C25.5262 31.5993 25.5385 31.4807 25.5535 31.3626C25.6407 30.7042 25.7297 30.046 25.8167 29.3873C25.8815 28.8986 25.9434 28.4093 26.0079 27.9202C26.0935 27.2718 26.1815 26.6236 26.2672 25.9749C26.3317 25.4862 26.3936 24.9969 26.4584 24.5078C26.543 23.8702 26.6305 23.2326 26.7143 22.5927C26.7982 21.9529 26.8771 21.3144 26.9615 20.676C27.0459 20.0375 27.1362 19.4007 27.2195 18.7612C27.3227 17.9827 27.4185 17.2037 27.5214 16.4253C27.6246 15.6371 27.7358 14.8498 27.8398 14.0616C27.943 13.2834 28.0398 12.5041 28.1407 11.7257C28.2529 10.8571 28.3747 9.99023 28.4761 9.11974C28.5947 8.17693 28.553 7.21881 28.353 6.29201C28.0834 4.98056 27.4134 3.80363 26.4496 2.94836C25.5036 2.10332 24.3345 1.59904 23.1073 1.50677C22.7603 1.48814 22.4125 1.49185 22.0659 1.51787C21.7281 1.53125 21.3929 1.58651 21.0669 1.68254C19.9184 2.02218 18.8867 2.71338 18.0974 3.67193C17.2843 4.6108 16.7721 5.8045 16.6357 7.07851C16.51 8.25806 16.668 9.45255 17.0947 10.5477C17.3532 11.2292 17.629 11.9028 17.8961 12.5807Z" fill="#42185F"/>
<path d="M29.9525 8.47919C30.009 8.48113 30.0655 8.47919 30.1218 8.47919C30.5449 8.47919 30.9681 8.48086 31.3912 8.47919C31.5795 8.47471 31.7672 8.50212 31.9475 8.56042C32.0309 8.58004 32.1091 8.61978 32.1762 8.67664C32.2432 8.73351 32.2974 8.80601 32.3345 8.88866C32.2241 8.99857 32.0971 9.08745 31.9588 9.15147C31.7594 9.26403 31.5537 9.36466 31.3587 9.48414C30.8997 9.75326 30.5516 10.1978 30.3834 10.7297C30.2075 11.3175 30.1602 11.941 30.2451 12.5517C30.2998 13.0213 30.3741 13.4882 30.4384 13.9561C30.5065 14.4438 30.5756 14.9314 30.643 15.4193C30.7077 15.8876 30.7704 16.3558 30.8344 16.824C30.8984 17.2923 30.9634 17.7605 31.0282 18.2285C31.093 18.6964 31.1603 19.1638 31.2261 19.6318C31.2963 20.1295 31.3659 20.6272 31.4351 21.125C31.4996 21.5932 31.5618 22.0617 31.6252 22.5299C31.6874 22.9882 31.7488 23.4467 31.8131 23.9047C31.8786 24.3727 31.9493 24.8395 32.0141 25.3075C32.0801 25.7857 32.1392 26.2648 32.2055 26.743C32.2901 27.3501 32.381 27.9564 32.4653 28.5638C32.5319 29.0418 32.5912 29.5208 32.656 29.9993C32.7277 30.526 32.8018 31.0547 32.8745 31.5826C32.8747 31.6125 32.8816 31.642 32.8948 31.6683C32.908 31.6947 32.927 31.7173 32.9502 31.7339C33.0147 31.5773 33.0771 31.4312 33.1349 31.2829C33.6499 29.9629 34.1645 28.6427 34.6786 27.3224C35.1979 25.9934 35.7188 24.665 36.2414 23.3372C36.7574 22.0176 37.2691 20.6961 37.7851 19.3768C38.3559 17.9176 38.9279 16.4592 39.5012 15.0015C40.0327 13.6453 40.5637 12.2889 41.0942 10.9321C41.3833 10.2536 41.5831 9.53517 41.6876 8.79745C41.7767 8.10642 41.7627 7.40456 41.6463 6.71824C41.4793 5.79391 41.1232 4.92098 40.6039 4.16247C39.9694 3.21474 39.1182 2.4588 38.1324 1.96765C37.0696 1.45781 35.8876 1.30737 34.7434 1.53629C33.9711 1.66685 33.2312 1.96309 32.5678 2.40734C31.4796 3.11203 30.6456 4.19175 30.2015 5.47071C30.0182 5.98918 29.8939 6.52953 29.8312 7.08002C29.7772 7.47977 29.7565 7.88391 29.7693 8.28763C29.7778 8.4584 29.7897 8.47282 29.9525 8.47919Z" fill="#42185F"/>
<path d="M6.69031 19.799C7.17785 20.532 7.78433 21.1646 8.48068 21.6664C10.1836 22.9232 11.8872 24.1789 13.5915 25.4334L25.0921 33.9072C25.1695 33.9626 25.2469 34.0167 25.3449 34.0854C25.3555 34.0353 25.356 33.9833 25.3463 33.933C25.3367 33.8826 25.3171 33.8351 25.2889 33.7935C24.9339 32.915 24.5742 32.0389 24.2179 31.1598C23.4863 29.3584 22.7553 27.5564 22.0248 25.7539C21.2481 23.8416 20.4706 21.9297 19.692 20.0183C18.8176 17.8659 17.9504 15.7102 17.0675 13.5617C16.643 12.498 15.9714 11.5692 15.1171 10.8642C14.5165 10.3586 13.8258 9.99068 13.0876 9.7833C12.3494 9.57592 11.5794 9.53347 10.8253 9.65857C10.2954 9.73916 9.77852 9.89901 9.28981 10.1335C8.56979 10.4599 7.91267 10.9276 7.35211 11.5127C6.8353 12.0739 6.42441 12.7372 6.14202 13.466C5.70032 14.5416 5.53291 15.724 5.65695 16.892C5.76686 17.9394 6.12241 18.9396 6.69031 19.799Z" fill="#42185F"/>
<path d="M40.6823 14.972C40.1977 16.1853 39.7133 17.3989 39.2291 18.6126C38.6813 19.9835 38.1329 21.3541 37.584 22.7241C37.1058 23.9186 36.6277 25.1131 36.1495 26.3076C35.6092 27.6599 35.0695 29.0125 34.5304 30.3654C34.0605 31.5419 33.59 32.7181 33.1191 33.8939C33.1007 33.9397 33.0744 33.984 33.1157 34.0461C33.1998 33.9865 33.2855 33.9286 33.3685 33.867L42.8793 26.8182C45.1605 25.1277 47.4419 23.4378 49.7234 21.7486C50.2929 21.3362 50.8092 20.8446 51.2587 20.2867C52.0421 19.3222 52.5304 18.122 52.6574 16.8491C52.7236 16.1756 52.69 15.495 52.5578 14.8328C52.3567 13.7856 51.9172 12.8083 51.2786 11.9881C50.6401 11.168 49.8224 10.5306 48.8986 10.133C47.8115 9.66249 46.621 9.53983 45.4706 9.77979C44.3382 10.0267 43.3078 10.6532 42.5276 11.569C41.9194 12.2738 41.4304 13.0873 41.0827 13.9729C40.9493 14.3055 40.8158 14.6386 40.6823 14.972Z" fill="#42185F"/>
<path d="M25.9341 36.3098H26.2151L26.2257 36.2588C25.7726 35.9191 25.3195 35.5796 24.8664 35.2403C22.9953 33.8356 21.1241 32.4317 19.253 31.0283C18.1363 30.1907 17.0193 29.3538 15.9019 28.5175C14.1384 27.1947 12.3753 25.8719 10.6125 24.549C10.0793 24.1536 9.49935 23.8366 8.88795 23.6064C8.37607 23.4074 7.84202 23.2818 7.29959 23.2327C6.8783 23.1937 6.45428 23.2049 6.0353 23.2662C5.49626 23.3432 4.97008 23.5019 4.47249 23.7375C3.3346 24.293 2.38869 25.2198 1.76927 26.3862C1.53604 26.7889 1.34924 27.2205 1.21298 27.6717C1.04695 28.2919 0.95689 28.9327 0.945138 29.5779C0.925457 30.1532 0.9837 30.7286 1.11802 31.2859C1.34653 32.3593 1.82816 33.3515 2.51661 34.1671C3.20506 34.9827 4.07717 35.5944 5.04916 35.9433C5.76948 36.2077 6.52781 36.3325 7.28876 36.3118C13.5032 36.307 19.7183 36.3063 25.9341 36.3098Z" fill="#42185F"/>
<path d="M53.652 23.786C52.6868 23.3154 51.6135 23.163 50.5677 23.348C49.6086 23.5142 48.6981 23.9156 47.9067 24.5209C44.4863 27.0845 41.0666 29.6493 37.6477 32.2154C35.9147 33.5152 34.1821 34.8156 32.45 36.1165C32.3656 36.1598 32.2957 36.2301 32.25 36.3178H51.382C51.5605 36.3178 51.7391 36.3131 51.9176 36.312C52.1994 36.3049 52.4799 36.2678 52.7549 36.2011C54.1159 35.907 55.3206 35.0646 56.122 33.8466C56.8089 32.8403 57.2219 31.6487 57.3148 30.4048C57.3936 29.5694 57.3154 28.7256 57.0849 27.9233C56.8302 27.0054 56.3906 26.1589 55.7973 25.4439C55.204 24.7289 54.4716 24.1629 53.652 23.786Z" fill="#42185F"/>
<path d="M131.88 11.8484C127.699 11.7569 124.247 13.3676 122.005 17.2765C120.068 20.6537 119.849 24.3392 120.904 28.0868C121.903 31.6306 124.095 34.0882 127.326 35.3468C130.649 36.6415 134.015 36.428 137.326 35.1999C139.061 34.5505 140.58 33.3699 141.698 31.8038C140.991 31.1133 140.283 30.4379 139.594 29.7418C138.895 29.0368 138.214 28.311 137.518 27.5872C137.373 27.7469 137.245 27.8988 137.106 28.0377C135.048 30.0939 132.112 30.6644 129.703 29.4516C129.06 29.1453 128.5 28.6686 128.075 28.0662C127.651 27.4639 127.375 26.7555 127.275 26.0076H142.13C142.185 25.1972 142.263 24.4756 142.274 23.7531C142.265 23.2094 142.228 22.6667 142.162 22.1275C141.635 16.1948 137.437 11.969 131.88 11.8484ZM127.351 21.5081C127.609 19.3128 129.361 17.7656 131.531 17.7974C133.583 17.8265 135.224 19.3909 135.403 21.5081H127.351Z" fill="#42185F"/>
<path d="M94.8857 11.8433C91.0376 11.7879 87.7879 13.2142 85.5148 16.6488C83.4806 19.7225 83.0476 23.1975 83.7303 26.8339C84.4131 30.4703 86.2648 33.2484 89.417 34.8494C93.2739 36.8083 97.2019 36.5635 101.093 34.9134C102.584 34.2618 103.877 33.1783 104.828 31.7835C104.106 31.0835 103.393 30.4074 102.697 29.7113C102.009 29.0235 101.338 28.3157 100.661 27.6174C98.6484 29.8463 96.2359 30.3023 94.4272 29.9846C92.2542 29.6029 90.7002 28.1031 90.4305 26.0175H105.272C105.389 24.465 105.456 22.9646 105.221 21.4515C104.33 15.7107 100.289 11.9196 94.8857 11.8433ZM90.4736 21.4909C90.8753 19.2129 92.4312 17.8315 94.5761 17.7996C96.6402 17.7702 98.0431 19.0568 98.5676 21.4909H90.4736Z" fill="#42185F"/>
<path d="M156.544 29.4594C155.481 29.3972 154.469 28.955 153.667 28.2033C152.866 27.4516 152.321 26.4335 152.12 25.311C151.25 20.8603 154.7 17.4732 158.75 18.7789C159.791 19.1212 160.723 19.7677 161.442 20.6461L165.933 15.7932C165.724 15.5847 165.496 15.3479 165.259 15.1226C162.612 12.6028 159.448 11.744 155.997 11.8488C153.142 11.9353 150.525 12.7933 148.411 14.9243C145.228 18.1341 144.449 22.1949 145.171 26.6342C145.861 30.8708 148.163 33.8357 151.919 35.3391C155.191 36.6488 158.519 36.4267 161.79 35.2244C163.47 34.6227 164.963 33.5383 166.109 32.0889L161.824 27.284C160.369 28.9673 158.613 29.6346 156.544 29.4594Z" fill="#42185F"/>
<path d="M178.57 29.5727C178.262 29.5975 177.954 29.5072 177.701 29.3171C177.447 29.127 177.262 28.8488 177.177 28.5293C177.026 28.0094 176.959 27.4655 176.98 26.9213C176.972 24.221 176.971 21.5205 176.978 18.8199C176.978 18.648 176.918 18.4517 177.146 18.2654H182.222V12.2551H176.966V3.94189L169.944 4.71148V12.2684H167.531V18.3004H169.964C169.964 19.7716 169.945 21.1946 169.968 22.6171C170.009 25.1562 169.783 27.7073 170.099 30.2326C170.445 33.0048 171.714 35.0721 174.348 35.8944C175.779 36.341 177.243 36.2021 178.694 36.015C180.047 35.834 181.349 35.3452 182.512 34.5812C181.934 32.7514 181.363 30.9436 180.769 29.0674C180.076 29.3938 179.327 29.5657 178.57 29.5727Z" fill="#42185F"/>
<path d="M77.8758 22.8661C77.0784 22.4032 76.2541 21.9958 75.4081 21.6463C74.0203 21.0511 72.5506 20.6744 71.2427 19.8676C70.8077 19.5993 70.4171 19.2719 70.5249 18.6395C70.6328 18.0071 71.0861 17.7449 71.5975 17.6332C72.2872 17.4999 72.9967 17.5487 73.665 17.7754C74.9599 18.2043 76.1398 18.9614 77.1054 19.9829L80.3946 14.7791C80.2563 14.6585 80.1642 14.569 80.0638 14.4919C78.1699 12.9826 75.9175 12.0792 73.5664 11.8859C71.5188 11.7324 69.5192 11.8821 67.6341 12.8928C63.4875 15.1165 62.6376 21.0968 66.0235 24.3701C66.9908 25.2537 68.1017 25.9376 69.3003 26.3875C70.6371 26.9394 72.0477 27.2777 73.3368 27.9652C73.8396 28.2333 74.3216 28.5729 74.2091 29.3028C74.0987 30.0203 73.5958 30.2928 72.9965 30.4012C71.5012 30.6712 70.1036 30.318 68.7634 29.6152C67.9184 29.1356 67.1298 28.5493 66.4142 27.8687L63.1523 32.7152C63.3647 32.907 63.5352 33.0756 63.7182 33.2236C67.2992 36.1523 71.3139 36.7444 75.6076 35.7054C78.661 34.9657 80.5718 32.7368 80.8928 29.4156C81.1727 26.538 80.368 24.3551 77.8758 22.8661Z" fill="#42185F"/>
<path d="M109.418 35.7028H116.312V0.452637H109.418V35.7028Z" fill="#42185F"/>
</svg>
