<svg width="215" height="37" viewBox="0 0 215 37" fill="none" xmlns="http://www.w3.org/2000/svg">
<g clip-path="url(#clip0_15539_45556)">
<path d="M145.081 12.8058C143.602 12.8394 142.123 12.8165 140.644 12.8188C140.202 12.8188 140.09 12.9097 139.97 13.3575C139.323 15.7828 138.676 18.2083 138.031 20.6341C137.744 21.7123 137.455 22.7912 137.166 23.8709C137.13 23.8562 137.099 23.8321 137.075 23.8009C137.051 23.7698 137.035 23.7326 137.029 23.6933C136.834 22.9884 136.637 22.2842 136.438 21.5808C135.66 18.8351 134.881 16.0898 134.101 13.3448C133.967 12.8736 133.891 12.8197 133.422 12.8184C132.446 12.8158 131.469 12.8184 130.492 12.8184C129.92 12.8184 129.348 12.814 128.776 12.8207C128.43 12.8246 128.338 12.9004 128.226 13.2305C128.194 13.3255 128.168 13.4226 128.141 13.5195C127.222 16.8813 126.303 20.2432 125.385 23.6053C125.367 23.7183 125.313 23.8215 125.231 23.8979C125.199 23.8416 125.171 23.7826 125.149 23.7217C124.695 22.0018 124.242 20.2818 123.79 18.5616C123.338 16.8415 122.885 15.1213 122.429 13.4011C122.293 12.89 122.2 12.8195 121.703 12.8186C120.154 12.8172 118.605 12.8176 117.057 12.8199C116.511 12.8214 116.334 13.0927 116.512 13.6295C117.321 16.0486 118.131 18.4676 118.941 20.8865C119.921 23.8225 120.9 26.7589 121.879 29.6957C122.076 30.2863 122.142 30.3328 122.752 30.3331C124.203 30.3338 125.654 30.3338 127.105 30.3331C127.666 30.3331 127.736 30.2803 127.902 29.7241C128.828 26.6342 129.754 23.544 130.68 20.4535C130.762 20.1019 130.878 19.7596 131.025 19.4313C131.125 19.5924 131.194 19.7719 131.229 19.96C132.229 23.2222 133.228 26.485 134.224 29.7486C134.386 30.2773 134.462 30.3317 134.998 30.3322C136.477 30.3337 137.956 30.3337 139.435 30.3322C139.978 30.3322 140.031 30.2943 140.213 29.7507C142.024 24.3728 143.838 18.9959 145.654 13.6199C145.801 13.1838 145.57 12.7946 145.081 12.8058Z" fill="#42185F"/>
<path d="M115.112 6.4279C115.113 6.3105 115.071 6.19699 114.995 6.11028C114.919 6.02358 114.813 5.97012 114.7 5.96071C114.59 5.94325 114.479 5.93546 114.367 5.93744C113.015 5.9358 111.662 5.9358 110.309 5.93744C109.676 5.93868 109.551 6.0698 109.551 6.71973C109.55 9.20118 109.55 11.6827 109.551 14.1642V14.6362C109.349 14.5965 109.284 14.4563 109.191 14.36C108.569 13.7146 107.834 13.1983 107.025 12.8392C105.801 12.2981 104.521 12.2181 103.214 12.3894C102.194 12.5091 101.209 12.852 100.327 13.3955C99.4436 13.9391 98.6822 14.6708 98.0928 15.5422C96.6993 17.5176 96.1796 19.7585 96.3133 22.1847C96.3771 23.6858 96.7618 25.1536 97.4395 26.4821C98.5515 28.6196 100.223 30.0491 102.528 30.6235C103.511 30.8429 104.522 30.8933 105.52 30.7726C106.535 30.6988 107.525 30.4135 108.431 29.9337C109.058 29.5948 109.647 29.1872 110.19 28.7177C110.3 29.0702 110.392 29.3682 110.487 29.665C110.657 30.1937 110.834 30.3297 111.368 30.3311C112.33 30.3336 113.293 30.3336 114.255 30.3311C115.063 30.3311 115.117 30.2765 115.117 29.4523C115.117 21.9213 115.117 14.3904 115.117 6.85948C115.117 6.71638 115.119 6.5717 115.112 6.4279ZM107.754 25.436C105.854 26.689 102.749 26.1067 101.884 23.0237C101.499 21.7571 101.61 20.3844 102.193 19.2018C102.894 17.7756 104.358 16.9855 105.856 17.0262C107.409 17.0685 109.119 18.2422 109.649 20.4178C109.728 20.7846 109.769 21.1592 109.77 21.5351C109.719 23.1774 109.118 24.5368 107.754 25.436Z" fill="#42185F"/>
<path d="M164.567 12.7264C164.571 12.6576 164.561 12.5886 164.537 12.5243C164.513 12.46 164.476 12.4018 164.428 12.3538C164.38 12.3057 164.323 12.2689 164.26 12.2458C164.198 12.2228 164.131 12.2141 164.065 12.2203C162.768 12.2127 161.471 12.2182 160.174 12.2173C160.04 12.2172 159.91 12.2599 159.801 12.3395C159.691 12.4192 159.609 12.5318 159.564 12.6621C159.511 12.7775 159.503 12.9132 159.459 13.0339C159.317 13.4266 159.272 13.8555 159.075 14.2424C159.007 14.1979 158.97 14.1789 158.938 14.1525C157.101 12.6124 154.998 12.0964 152.678 12.3886C150.637 12.6455 148.997 13.6412 147.725 15.2879C146.582 16.7683 145.992 18.4823 145.797 20.3579C145.57 22.3442 145.895 24.356 146.732 26.1582C147.747 28.3461 149.363 29.8479 151.636 30.5326C152.645 30.8243 153.7 30.9066 154.74 30.7747C155.754 30.6854 156.741 30.394 157.648 29.9165C158.344 29.5358 158.993 29.0709 159.582 28.5315C159.724 28.9874 159.84 29.3852 159.97 29.7776C160.105 30.1805 160.303 30.3255 160.717 30.3315C161.164 30.3379 161.61 30.3338 162.056 30.3336C162.712 30.3336 163.367 30.3386 164.023 30.3296C164.391 30.3245 164.552 30.1512 164.569 29.7774C164.573 29.6768 164.571 29.5757 164.571 29.4747V13.0732C164.57 12.9571 164.575 12.8413 164.567 12.7264ZM156.931 25.6024C156.376 25.9074 155.752 26.0527 155.124 26.023C153.278 26.0826 151.789 24.7452 151.338 23.0379C150.897 21.3698 151.06 19.7977 152.144 18.4342C152.954 17.4147 154.045 17.0141 155.327 17.0337C156.952 17.0587 158.563 18.3741 159.068 20.3154C159.601 22.3627 158.712 24.6116 156.931 25.6024H156.931Z" fill="#42185F"/>
<path d="M63.406 19.8498C63.4183 18.8835 63.3143 17.9194 63.0963 16.9797C62.6281 15.0854 61.6149 13.6326 59.8537 12.8383C58.2243 12.1043 56.5385 12.1862 54.8581 12.6378C53.7185 12.9442 52.7501 13.5952 51.8274 14.3771C51.8009 14.3292 51.7774 14.2795 51.7572 14.2284C51.6837 13.9817 51.6128 13.733 51.541 13.4852C51.3879 12.9543 51.215 12.8191 50.6683 12.818C49.5521 12.8158 48.4358 12.8158 47.3196 12.818C46.7678 12.8191 46.6223 12.9643 46.6223 13.5291C46.6207 18.8976 46.6207 24.2662 46.6223 29.6348C46.6223 30.1678 46.7823 30.3301 47.2977 30.3315C48.4279 30.3347 49.5581 30.3327 50.6882 30.3325C51.0371 30.3325 51.3855 30.3408 51.7346 30.3278C51.801 30.3344 51.8681 30.3259 51.9311 30.3031C51.9941 30.2802 52.0516 30.2434 52.0996 30.1952C52.1475 30.147 52.1848 30.0887 52.2089 30.0241C52.2329 29.9595 52.2432 29.8903 52.2389 29.8213C52.2486 29.6921 52.2421 29.5617 52.2421 29.4318C52.2421 26.7041 52.2431 23.9766 52.245 21.2491C52.2269 20.7008 52.275 20.1522 52.3883 19.6163C52.7044 18.342 53.3531 17.365 54.6894 17.12C55.575 16.9577 56.4201 17.0781 57.0501 17.8589C57.2986 18.1894 57.4763 18.571 57.5714 18.9782C57.7679 19.6953 57.7626 20.4315 57.7626 21.1671C57.7626 23.9667 57.7629 26.7665 57.7636 29.5663C57.7636 30.1857 57.9068 30.3304 58.5011 30.332C59.1984 30.334 59.8957 30.332 60.5941 30.332C61.3336 30.332 62.0738 30.3366 62.8124 30.3292C63.2086 30.3253 63.3705 30.1634 63.4043 29.7635C63.414 29.6488 63.4077 29.5326 63.4077 29.4172C63.4087 26.2287 63.4133 23.0392 63.406 19.8498Z" fill="#42185F"/>
<path d="M202.231 17.4204C201.264 15.0398 199.634 13.3979 197.216 12.6484C195.592 12.1455 193.869 12.0926 192.22 12.4951C189.8 13.0641 187.878 14.3828 186.585 16.6106C185.344 18.752 185.065 21.0882 185.46 23.4936C185.996 26.7539 187.82 28.9901 190.801 30.1904C192.198 30.7383 193.692 30.9739 195.184 30.8815C196.452 30.8467 197.704 30.5731 198.878 30.0741C199.756 29.7006 200.559 29.1602 201.246 28.4809C201.554 28.1683 201.575 27.8818 201.288 27.5769C200.509 26.7502 199.721 25.9323 198.925 25.1232C198.635 24.8275 198.357 24.8451 198.039 25.1297C197.871 25.2806 197.707 25.4381 197.531 25.5781C196.582 26.3297 195.488 26.5297 194.331 26.4356C193.759 26.402 193.2 26.2468 192.689 25.9795C192.177 25.7122 191.724 25.3387 191.358 24.8821C190.943 24.3996 190.704 23.7828 190.68 23.1374H202.974C203.01 22.5087 203.014 21.8784 202.987 21.2491C202.958 19.9362 202.702 18.6393 202.231 17.4204ZM197.788 19.5483H190.704C190.668 19.1945 190.735 18.8377 190.894 18.5227C191.423 17.2778 192.382 16.5841 193.64 16.3053C194.339 16.1532 195.062 16.1822 195.747 16.3899C197.019 16.7623 197.959 18.2134 197.788 19.548V19.5483Z" fill="#42185F"/>
<path d="M82.3427 17.8535C81.4169 15.2215 79.7105 13.4109 77.0797 12.6162C75.4782 12.134 73.7831 12.0927 72.1615 12.4964C69.3767 13.1661 67.2972 14.7811 66.0896 17.5029C65.2181 19.4677 65.0691 21.53 65.4404 23.631C65.9384 26.4526 67.4315 28.5404 69.9256 29.8102C72.3664 31.053 74.926 31.1769 77.5387 30.5236C78.8881 30.1968 80.1318 29.511 81.147 28.5338C81.5315 28.1637 81.5394 27.8859 81.1768 27.5049C80.4328 26.7237 79.6845 25.947 78.9317 25.1748C78.5902 24.8241 78.3055 24.8197 77.9541 25.1692C76.7159 26.4005 75.2227 26.6809 73.6136 26.3245C73.0484 26.2172 72.5139 25.9785 72.0504 25.6265C71.587 25.2745 71.2065 24.8183 70.9376 24.2921C70.7364 23.9513 70.6359 23.5571 70.6484 23.1578H82.9412C82.9412 22.5763 82.9442 22.0589 82.9412 21.5422C82.9478 20.2861 82.7453 19.0382 82.3427 17.8535ZM77.7675 19.5518H70.6704C70.5698 19.254 70.6855 18.9835 70.7775 18.7235C71.2628 17.353 72.2611 16.6063 73.6008 16.3049C74.2452 16.1712 74.9101 16.1868 75.5479 16.3508C76.9222 16.6718 77.6119 17.9354 77.7466 18.9463C77.7953 19.1445 77.8026 19.3513 77.7682 19.5527L77.7675 19.5518Z" fill="#42185F"/>
<path d="M213.563 12.9867C212.615 12.984 211.666 12.9867 210.718 12.9842C210.58 13.0058 210.439 12.9937 210.306 12.949C210.249 12.8325 210.217 12.7049 210.212 12.5747C210.093 11.4437 209.975 10.3126 209.858 9.18134C209.798 8.59713 209.559 8.35957 208.995 8.35305C208.45 8.34671 207.906 8.35129 207.362 8.35129C206.706 8.35129 206.05 8.34495 205.395 8.35429C204.968 8.36028 204.788 8.55237 204.77 8.98678C204.765 9.10203 204.77 9.21763 204.769 9.33306C204.745 13.7767 204.858 18.2197 204.824 22.6633C204.818 23.4564 204.831 24.2505 204.829 25.044C204.832 25.6209 204.893 26.1958 205.01 26.7598C205.368 28.575 206.307 29.9034 208.046 30.5012C209.915 31.1437 211.805 31.039 213.683 30.517C213.987 30.4326 214.062 30.299 214.061 29.9365C214.056 28.9555 214.049 27.9744 214.033 26.9935C214.025 26.4796 213.791 26.2773 213.31 26.3723C212.856 26.4517 212.394 26.4705 211.935 26.4283C211.122 26.3721 210.631 25.9465 210.399 25.1385C210.3 24.7476 210.257 24.3438 210.272 23.9401C210.272 21.8481 210.272 19.7561 210.274 17.6638C210.274 17.5405 210.234 17.405 210.324 17.2906C210.459 17.2556 210.6 17.2466 210.738 17.264C211.687 17.261 212.635 17.264 213.584 17.2612C214.101 17.2592 214.236 17.1251 214.238 16.6047C214.242 15.6236 214.242 14.6425 214.238 13.6616C214.237 13.0996 214.124 12.9881 213.563 12.9867Z" fill="#42185F"/>
<path d="M173.86 6.73703C173.86 6.0908 173.718 5.93835 173.104 5.93729C171.71 5.93483 170.315 5.93483 168.919 5.93729C168.299 5.93853 168.169 6.07986 168.169 6.73139C168.169 10.5413 168.169 14.3512 168.169 18.1612V25.6078C168.169 26.9787 168.167 28.3498 168.17 29.7207C168.171 30.1487 168.337 30.3209 168.747 30.3306C169.04 30.3375 169.333 30.3329 169.626 30.3329C170.826 30.3329 172.026 30.3292 173.225 30.3352C173.482 30.3364 173.692 30.2857 173.811 30.0213C173.862 29.871 173.878 29.7109 173.859 29.5531C173.861 21.9479 173.861 14.3426 173.86 6.73703Z" fill="#42185F"/>
<path d="M183.179 18.116C183.179 14.3643 183.179 10.6126 183.179 6.86084C183.179 6.71669 183.182 6.57201 183.175 6.42821C183.176 6.31085 183.134 6.19743 183.058 6.11073C182.981 6.02404 182.876 5.97049 182.763 5.96084C182.653 5.94314 182.542 5.9353 182.43 5.9374C181.036 5.93599 179.641 5.93599 178.245 5.9374C177.633 5.93846 177.49 6.09126 177.489 6.73926C177.488 8.48535 177.488 10.2313 177.489 11.9772C177.489 17.8068 177.489 23.6363 177.489 29.4658C177.489 30.2209 177.599 30.3328 178.339 30.3332C179.678 30.3332 181.017 30.3332 182.356 30.3332C182.454 30.3332 182.552 30.3364 182.649 30.3311C183.002 30.3119 183.156 30.1596 183.177 29.8041C183.184 29.6748 183.179 29.5446 183.179 29.4147V18.116Z" fill="#42185F"/>
<path d="M95.5182 12.3202C94.7105 12.2577 93.8991 12.3696 93.1353 12.6487C92.0108 13.0612 90.977 13.7019 90.0944 14.5333C90.0706 14.4995 90.05 14.4635 90.0329 14.4256C89.9478 14.1223 89.8648 13.818 89.7801 13.5145C89.6313 12.9805 89.4508 12.8334 88.918 12.8318C87.8022 12.8286 86.6865 12.8286 85.5708 12.8318C85.0515 12.833 84.901 12.9892 84.8881 13.5223C84.8861 13.6088 84.8881 13.6953 84.8881 13.7819C84.8881 18.9895 84.8881 24.1971 84.8881 29.4047C84.8881 29.5057 84.8843 29.6068 84.8893 29.7076C84.9114 30.16 85.0723 30.3266 85.5106 30.3315C86.0684 30.3377 86.6263 30.3334 87.1842 30.3333C88.0768 30.3333 88.97 30.3363 89.8619 30.3311C90.3312 30.3285 90.4734 30.1725 90.4805 29.6775C90.4824 29.5476 90.4814 29.4179 90.4814 29.288C90.4814 26.749 90.4809 24.2101 90.48 21.6713C90.4788 21.3401 90.5047 21.0093 90.5572 20.6825C90.8974 18.5917 92.6121 17.4222 94.0855 17.4034C94.5186 17.3976 94.9497 17.42 95.3817 17.4286C95.7294 17.4356 95.908 17.2742 95.926 16.9232C95.991 15.6131 96.0495 14.3026 96.1015 12.9918C96.1173 12.5544 95.9335 12.3403 95.5182 12.3202Z" fill="#42185F"/>
<path d="M2.97468e-07 35.5234C-0.000177972 35.7329 0.0797764 35.9339 0.222318 36.0825L2.97468e-07 12.3486V35.5234Z" fill="#42185F"/>
<path opacity="0.8" d="M0.767239 36.3183H10.8624C11.0658 36.3182 11.2609 36.2345 11.4047 36.0854C11.5485 35.9364 11.6293 35.7342 11.6293 35.5235V24.65L0.222656 36.0833C0.293875 36.1579 0.378678 36.2171 0.472172 36.2575C0.565666 36.2978 0.665968 36.3185 0.767239 36.3183Z" fill="#42185F"/>
<path opacity="0.8" d="M10.8622 0.452152H0.767067C0.563658 0.452152 0.368574 0.53587 0.224726 0.684886C0.0808784 0.833901 4.51017e-05 1.03601 0 1.24677V12.3493L11.4422 0.732891C11.371 0.645298 11.2822 0.574817 11.1821 0.526338C11.0819 0.47786 10.9728 0.452543 10.8622 0.452152Z" fill="#42185F"/>
<path d="M23.9002 36.3183H33.9952C34.1986 36.3183 34.3937 36.2345 34.5376 36.0855C34.6814 35.9364 34.7623 35.7343 34.7623 35.5235V24.65L23.3906 36.1142C23.5302 36.2452 23.7118 36.3179 23.9002 36.3183Z" fill="#42185F"/>
<path d="M23.3672 36.0917L23.3555 36.0807C23.3593 36.0845 23.3633 36.088 23.3672 36.0917Z" fill="#42185F"/>
<path d="M33.9988 0.452114H23.9038C23.7004 0.452114 23.5053 0.535832 23.3614 0.684847C23.2176 0.833863 23.1368 1.03597 23.1367 1.24673V12.7208L34.7658 24.6493V1.24673C34.7658 1.03597 34.685 0.833863 34.5411 0.684847C34.3973 0.535832 34.2022 0.452114 33.9988 0.452114Z" fill="#42185F"/>
<path d="M23.3904 36.1146L23.3918 36.113C23.384 36.1059 23.3745 36.1002 23.3672 36.0928L23.3904 36.1146Z" fill="#42185F"/>
<path opacity="0.8" d="M23.1331 12.7211L11.4434 0.73033L11.4414 0.732439C11.5614 0.875115 11.6278 1.05778 11.6285 1.24703V24.6496L23.3542 36.081C23.2125 35.9327 23.133 35.7324 23.1331 35.5237V12.7211Z" fill="#42185F"/>
<path d="M11.4422 0.732417L0 12.3488L0.222318 36.0827L11.629 24.6494V1.24701C11.6284 1.0578 11.5621 0.875144 11.4422 0.732417Z" fill="#42185F"/>
<path opacity="0.65" d="M23.1367 35.5234C23.1366 35.7321 23.2161 35.9324 23.3578 36.0807L23.3702 36.0928C23.3777 36.1004 23.3872 36.1062 23.3944 36.1135L34.766 24.6493L23.1369 12.7208L23.1367 35.5234Z" fill="#42185F"/>
</g>
<defs>
<clipPath id="clip0_15539_45556">
<rect width="214.241" height="35.8661" fill="white" transform="translate(0 0.452148)"/>
</clipPath>
</defs>
</svg>
