<svg width="75" height="43" viewBox="0 0 75 43" fill="none" xmlns="http://www.w3.org/2000/svg">
<g clip-path="url(#clip0_10060_119864)">
<path d="M28.0097 0.570264C27.9625 0.670603 27.9366 0.779603 27.9335 0.890436C27.9304 1.00127 27.9502 1.11155 27.9916 1.21438C28.2154 1.33344 28.4604 1.40703 28.7127 1.43092C30.6615 1.72231 31.0038 2.4638 31.0283 4.29401C31.0297 4.39584 31.0105 4.49767 31.0069 4.59981C30.9572 5.93159 30.7051 7.23515 30.442 8.53534C29.1831 14.7563 27.9188 20.9763 26.6492 27.1953C26.4806 28.0205 26.3024 28.8438 26.1076 29.7674C26.0004 29.5966 25.9391 29.5394 25.9267 29.4728C25.3998 26.7706 24.8752 24.0679 24.353 21.3645C23.4563 16.7604 22.5481 12.1585 21.6623 7.55214C21.4076 6.22757 21.0436 4.91619 21.112 3.54392C21.1755 2.26873 21.6612 1.68826 22.9146 1.46512C23.2628 1.40378 23.6174 1.38016 23.9617 1.20088C23.9617 1.02421 23.9675 0.849226 23.9574 0.675316C23.9551 0.634829 23.8985 0.597718 23.8844 0.580542H12.9627C12.9097 0.841254 12.8764 1.04155 13.0002 1.25855C13.1835 1.32834 13.3712 1.38572 13.5621 1.43031C14.4175 1.57754 14.8978 2.11721 15.1404 2.911C15.2147 3.15438 15.2806 3.40175 15.3312 3.65066C15.7936 5.92346 16.2533 8.19688 16.7102 10.4709C16.7801 10.8183 16.9039 11.1563 16.8238 11.5268C16.7 12.0997 16.6016 12.6782 16.4937 13.2547C15.692 17.5397 14.8901 21.8247 14.088 26.1098C13.8695 27.2753 13.6437 28.4397 13.4069 29.6764C13.3434 29.6348 13.2895 29.5801 13.249 29.5158C13.2085 29.4515 13.1824 29.3793 13.1723 29.304C12.8135 27.504 12.4522 25.7045 12.0887 23.9057C10.9951 18.5096 9.90046 13.1136 8.80466 7.71777C8.55628 6.49319 8.23619 5.27659 8.18899 4.02317C8.1277 2.40231 8.62246 1.6059 10.0947 1.39626C10.2822 1.36958 10.5058 1.35485 10.6434 1.16776C10.6696 0.968387 10.724 0.76703 10.5708 0.566895H0.0526605C-0.00709903 0.837575 -0.0374482 1.05949 0.0809982 1.28769C0.219006 1.34832 0.361794 1.39741 0.507897 1.43445C1.44827 1.59901 1.98135 2.1807 2.21334 3.07709C2.39844 3.79221 2.60423 4.50334 2.7593 5.22414C3.70197 9.61024 4.63794 13.9975 5.56722 18.3858C7.03577 25.2916 8.50366 32.1975 9.97089 39.1036C10.1813 40.0927 10.4044 41.079 10.6229 42.0728C11.3204 42.0881 11.9497 42.1462 12.6196 42.0311C14.3084 33.0711 15.9944 24.1251 17.6777 15.193L17.8536 15.2025C19.7203 24.1649 21.5855 33.1208 23.4494 42.0703C23.9451 42.1113 24.4435 42.1078 24.9387 42.0599C25.0464 41.949 25.1109 41.803 25.1202 41.6486C26.2563 36.2361 27.3932 30.8231 28.5311 25.4097C29.6965 19.8728 30.8654 14.3365 32.0378 8.80081C32.4055 7.0821 32.7405 5.35557 33.2229 3.66139C33.5454 2.52822 34.1094 1.66419 35.327 1.37526C35.3935 1.35992 35.4471 1.28907 35.5299 1.22665C35.5216 1.01639 35.5973 0.792788 35.4762 0.569955L28.0097 0.570264Z" fill="#42185F"/>
<path d="M48.6012 18.7196C47.0059 16.9937 45.2786 15.393 43.7567 13.5973C42.8113 12.4822 41.9708 11.2952 41.4316 9.92665C40.5849 7.77777 40.475 5.60496 41.372 3.44274C41.7902 2.43485 42.5549 1.7682 43.6517 1.60794C45.0627 1.40167 46.327 1.75608 47.3975 2.74111C48.2615 3.53613 48.8531 4.51303 49.3174 5.57122C50.2379 7.66704 50.6732 9.89123 51.0268 12.1376C51.1321 12.8055 51.1064 13.4998 51.3537 14.1773C51.5152 14.1773 51.6405 14.1786 51.766 14.1773C51.8938 14.1758 52.0234 14.1773 52.0985 14.0562V0.596221C52.0058 0.536506 51.8983 0.504002 51.7881 0.502402C51.6779 0.500803 51.5694 0.530169 51.475 0.58717C51.3371 0.909226 51.2236 1.24907 51.0541 1.55901C50.5829 2.42028 49.8329 2.63575 48.9929 2.14531C48.6463 1.92937 48.3132 1.69266 47.9952 1.43647C46.9402 0.609318 45.6262 0.183452 44.287 0.234593C41.1271 0.340258 38.8097 1.81895 37.552 4.70535C35.8334 8.64993 36.035 12.5574 38.1905 16.3167C39.2528 18.1696 40.6644 19.752 42.1182 21.2985C43.7973 23.0845 45.5636 24.7911 47.0829 26.7234C48.9172 29.0564 50.1168 31.623 49.9357 34.6762C49.8471 36.1638 49.5986 37.6185 48.792 38.9157C47.7568 40.5797 46.07 41.2532 44.1755 40.7769C42.5984 40.3803 41.4849 39.3691 40.5964 38.0726C39.1221 35.9217 38.4332 33.4759 37.9858 30.947C37.8316 30.0753 37.7198 29.1961 37.5874 28.3156C37.4141 28.3029 37.2878 28.285 37.1617 28.2866C37.0391 28.2882 36.9037 28.2601 36.8032 28.394V41.905C37.0519 41.9713 37.2497 41.9996 37.4746 41.8532C37.6204 41.3772 37.8394 40.9268 38.1237 40.5182C38.7009 39.7592 39.4671 39.6023 40.273 40.1041C40.684 40.3598 41.0668 40.6608 41.461 40.943C43.2871 42.2505 45.2936 42.503 47.4354 41.9684C50.0462 41.3166 51.8757 39.6792 52.962 37.2866C54.8415 33.1468 54.6883 28.9613 52.9099 24.8201C51.9084 22.4878 50.306 20.5639 48.6012 18.7196Z" fill="#42185F"/>
<path d="M74.5049 0.774955C74.488 0.701235 74.4613 0.630115 74.4256 0.563477H62.7061C62.6532 0.800927 62.6648 1.04821 62.7397 1.27967C63.3112 1.42858 63.8808 1.56399 64.4427 1.72625C65.5871 2.05674 65.9952 2.58139 66.0421 3.75183C66.0491 3.9305 66.0474 4.10962 66.0474 4.28859C66.0474 14.3579 66.0487 24.4271 66.0511 34.4963C66.0451 35.3901 65.9849 36.2827 65.8706 37.1692C65.7966 37.908 65.5834 38.6261 65.2424 39.2855C64.8653 39.9818 64.3411 40.5081 63.545 40.7285C62.8246 40.9109 62.0652 40.8639 61.3727 40.594C60.6801 40.3242 60.0889 39.845 59.6812 39.2231C59.0776 38.2672 59.1755 37.5153 60.0418 36.7944C60.459 36.4585 60.8937 36.1451 61.3442 35.8553C62.4706 35.1039 62.9292 34.0457 62.8659 32.7125C62.7797 30.894 61.2204 29.6827 59.4353 30.0686C57.9865 30.3819 57.0742 31.2927 56.5337 32.638C56.118 33.6729 56.1188 34.7648 56.2861 35.8126C56.9839 40.1793 60.1971 42.8121 65.0856 41.9793C68.2971 41.4323 70.1741 39.3793 71.0796 36.3397C71.5145 34.8801 71.5804 33.3783 71.5795 31.8661C71.5733 22.8448 71.5725 13.8234 71.577 4.80205C71.5761 4.31712 71.6021 3.83252 71.655 3.35049C71.7558 2.44566 72.2344 1.92823 73.0934 1.68055C73.5511 1.54851 74.0465 1.51186 74.4234 1.26909C74.5133 1.1211 74.5425 0.94402 74.5049 0.774955Z" fill="#42185F"/>
</g>
<defs>
<clipPath id="clip0_10060_119864">
<rect width="74.5161" height="42" fill="white" transform="translate(0 0.231445)"/>
</clipPath>
</defs>
</svg>
